<?xml version="1.0" encoding="UTF-8"?>
<svg xmlns="http://www.w3.org/2000/svg" viewBox="0 0 500 306.6413">
  <g id="Boundingbox">
    <rect width="500" height="306.6413" fill="none" stroke-width="0"/>
  </g>
  <g id="Logo">
    <path d="m355.8001,167.6333h21.7495v37.6049l-21.7495-37.6049Zm-62.1612-21.0478v-44.6211l25.6784,44.6211h-25.6784Zm-95.4161,60.0561h22.4512v-39.0083h39.5694v-21.0478h-39.5694v-46.5855h-22.4512v106.6416Zm-65.9494,0h22.4512v-85.5938h32.2726v-21.0478h-86.9972v21.0478h32.2734v85.5938Zm243.1711,0h24.5555v-5.8933c0-27.6428-16.6978-54.1628-48.8305-54.1628h-7.5772l-16.9783-29.4666c-6.7357-11.6468-16.1367-17.1189-31.2912-17.1189h-24.1344v106.6416h22.4505v-39.0083h37.8862l12.6282,21.8894c6.7357,11.6467,16.1367,17.1189,31.2912,17.1189" fill="#ff0350" stroke-width="0"/>
  </g>
</svg>